<mxfile host="Electron" agent="Mozilla/5.0 (Windows NT 10.0; Win64; x64) AppleWebKit/537.36 (KHTML, like Gecko) draw.io/26.0.16 Chrome/132.0.6834.196 Electron/34.2.0 Safari/537.36" version="26.0.16">
  <diagram name="Page-1" id="O6RB3bWE65c_NbjuHl6_">
    <mxGraphModel dx="1036" dy="606" grid="1" gridSize="10" guides="1" tooltips="1" connect="1" arrows="1" fold="1" page="1" pageScale="1" pageWidth="827" pageHeight="1169" math="0" shadow="0">
      <root>
        <mxCell id="0" />
        <mxCell id="1" parent="0" />
        <mxCell id="3h6TciAY_qZMlA3zQGol-1" value="Student " style="swimlane;fontStyle=0;childLayout=stackLayout;horizontal=1;startSize=26;horizontalStack=0;resizeParent=1;resizeParentMax=0;resizeLast=0;collapsible=1;marginBottom=0;align=center;fontSize=14;" parent="1" vertex="1">
          <mxGeometry x="40" y="240" width="190" height="116" as="geometry" />
        </mxCell>
        <mxCell id="3h6TciAY_qZMlA3zQGol-2" value="Student ID {PK}" style="text;strokeColor=none;fillColor=none;spacingLeft=4;spacingRight=4;overflow=hidden;rotatable=0;points=[[0,0.5],[1,0.5]];portConstraint=eastwest;fontSize=12;whiteSpace=wrap;html=1;" parent="3h6TciAY_qZMlA3zQGol-1" vertex="1">
          <mxGeometry y="26" width="190" height="30" as="geometry" />
        </mxCell>
        <mxCell id="3h6TciAY_qZMlA3zQGol-9" style="edgeStyle=orthogonalEdgeStyle;rounded=0;orthogonalLoop=1;jettySize=auto;html=1;exitX=1;exitY=0.5;exitDx=0;exitDy=0;startArrow=none;startFill=0;strokeColor=none;" parent="3h6TciAY_qZMlA3zQGol-1" source="3h6TciAY_qZMlA3zQGol-3" edge="1">
          <mxGeometry relative="1" as="geometry">
            <mxPoint x="320" y="71" as="targetPoint" />
          </mxGeometry>
        </mxCell>
        <mxCell id="3h6TciAY_qZMlA3zQGol-3" value="Module ID {FK}" style="text;strokeColor=none;fillColor=none;spacingLeft=4;spacingRight=4;overflow=hidden;rotatable=0;points=[[0,0.5],[1,0.5]];portConstraint=eastwest;fontSize=12;whiteSpace=wrap;html=1;" parent="3h6TciAY_qZMlA3zQGol-1" vertex="1">
          <mxGeometry y="56" width="190" height="30" as="geometry" />
        </mxCell>
        <mxCell id="3h6TciAY_qZMlA3zQGol-4" value="Qualification" style="text;strokeColor=none;fillColor=none;spacingLeft=4;spacingRight=4;overflow=hidden;rotatable=0;points=[[0,0.5],[1,0.5]];portConstraint=eastwest;fontSize=12;whiteSpace=wrap;html=1;" parent="3h6TciAY_qZMlA3zQGol-1" vertex="1">
          <mxGeometry y="86" width="190" height="30" as="geometry" />
        </mxCell>
        <mxCell id="3h6TciAY_qZMlA3zQGol-5" value="Module " style="swimlane;fontStyle=0;childLayout=stackLayout;horizontal=1;startSize=26;horizontalStack=0;resizeParent=1;resizeParentMax=0;resizeLast=0;collapsible=1;marginBottom=0;align=center;fontSize=14;" parent="1" vertex="1">
          <mxGeometry x="510" y="240" width="160" height="116" as="geometry" />
        </mxCell>
        <mxCell id="3h6TciAY_qZMlA3zQGol-6" value="Module ID {PK}" style="text;strokeColor=none;fillColor=none;spacingLeft=4;spacingRight=4;overflow=hidden;rotatable=0;points=[[0,0.5],[1,0.5]];portConstraint=eastwest;fontSize=12;whiteSpace=wrap;html=1;" parent="3h6TciAY_qZMlA3zQGol-5" vertex="1">
          <mxGeometry y="26" width="160" height="30" as="geometry" />
        </mxCell>
        <mxCell id="3h6TciAY_qZMlA3zQGol-7" value="Student ID {FK}" style="text;strokeColor=none;fillColor=none;spacingLeft=4;spacingRight=4;overflow=hidden;rotatable=0;points=[[0,0.5],[1,0.5]];portConstraint=eastwest;fontSize=12;whiteSpace=wrap;html=1;" parent="3h6TciAY_qZMlA3zQGol-5" vertex="1">
          <mxGeometry y="56" width="160" height="30" as="geometry" />
        </mxCell>
        <mxCell id="3h6TciAY_qZMlA3zQGol-8" value="Item 3" style="text;strokeColor=none;fillColor=none;spacingLeft=4;spacingRight=4;overflow=hidden;rotatable=0;points=[[0,0.5],[1,0.5]];portConstraint=eastwest;fontSize=12;whiteSpace=wrap;html=1;" parent="3h6TciAY_qZMlA3zQGol-5" vertex="1">
          <mxGeometry y="86" width="160" height="30" as="geometry" />
        </mxCell>
        <mxCell id="3h6TciAY_qZMlA3zQGol-11" style="edgeStyle=orthogonalEdgeStyle;rounded=0;orthogonalLoop=1;jettySize=auto;html=1;exitX=1;exitY=0.5;exitDx=0;exitDy=0;entryX=0;entryY=0.5;entryDx=0;entryDy=0;endArrow=none;startFill=0;" parent="1" source="3h6TciAY_qZMlA3zQGol-3" target="3h6TciAY_qZMlA3zQGol-7" edge="1">
          <mxGeometry relative="1" as="geometry" />
        </mxCell>
        <mxCell id="3h6TciAY_qZMlA3zQGol-12" value="Studies&amp;nbsp;" style="text;html=1;align=center;verticalAlign=middle;resizable=0;points=[];autosize=1;strokeColor=none;fillColor=none;" parent="1" vertex="1">
          <mxGeometry x="195" y="8" width="70" height="30" as="geometry" />
        </mxCell>
        <mxCell id="3h6TciAY_qZMlA3zQGol-14" value="Takes" style="text;html=1;align=center;verticalAlign=middle;resizable=0;points=[];autosize=1;strokeColor=none;fillColor=none;" parent="1" vertex="1">
          <mxGeometry x="320" y="260" width="50" height="30" as="geometry" />
        </mxCell>
        <mxCell id="3h6TciAY_qZMlA3zQGol-15" value="Registers" style="text;html=1;align=center;verticalAlign=middle;resizable=0;points=[];autosize=1;strokeColor=none;fillColor=none;" parent="1" vertex="1">
          <mxGeometry x="245" y="48" width="70" height="30" as="geometry" />
        </mxCell>
        <mxCell id="3h6TciAY_qZMlA3zQGol-17" value="" style="endArrow=classic;html=1;rounded=0;" parent="1" edge="1">
          <mxGeometry width="50" height="50" relative="1" as="geometry">
            <mxPoint x="245" y="290" as="sourcePoint" />
            <mxPoint x="445" y="290" as="targetPoint" />
            <Array as="points">
              <mxPoint x="345" y="290" />
              <mxPoint x="385" y="290" />
            </Array>
          </mxGeometry>
        </mxCell>
        <mxCell id="3h6TciAY_qZMlA3zQGol-18" value="1..*" style="text;html=1;align=center;verticalAlign=middle;resizable=0;points=[];autosize=1;strokeColor=none;fillColor=none;" parent="1" vertex="1">
          <mxGeometry x="190" y="278" width="40" height="30" as="geometry" />
        </mxCell>
        <mxCell id="3h6TciAY_qZMlA3zQGol-19" value="1..*" style="text;html=1;align=center;verticalAlign=middle;resizable=0;points=[];autosize=1;strokeColor=none;fillColor=none;" parent="1" vertex="1">
          <mxGeometry x="460" y="278" width="40" height="30" as="geometry" />
        </mxCell>
        <mxCell id="3h6TciAY_qZMlA3zQGol-20" value="1..1" style="text;html=1;align=center;verticalAlign=middle;resizable=0;points=[];autosize=1;strokeColor=none;fillColor=none;" parent="1" vertex="1">
          <mxGeometry x="155" y="368" width="40" height="30" as="geometry" />
        </mxCell>
        <mxCell id="3h6TciAY_qZMlA3zQGol-21" value="1..1" style="text;html=1;align=center;verticalAlign=middle;resizable=0;points=[];autosize=1;strokeColor=none;fillColor=none;" parent="1" vertex="1">
          <mxGeometry x="550" y="368" width="40" height="30" as="geometry" />
        </mxCell>
        <mxCell id="3h6TciAY_qZMlA3zQGol-22" value="Enrollment" style="swimlane;fontStyle=0;childLayout=stackLayout;horizontal=1;startSize=30;horizontalStack=0;resizeParent=1;resizeParentMax=0;resizeLast=0;collapsible=1;marginBottom=0;whiteSpace=wrap;html=1;" parent="1" vertex="1">
          <mxGeometry x="290" y="450" width="140" height="120" as="geometry" />
        </mxCell>
        <mxCell id="3h6TciAY_qZMlA3zQGol-23" value="Student ID {FK}&amp;nbsp;" style="text;strokeColor=none;fillColor=none;align=left;verticalAlign=middle;spacingLeft=4;spacingRight=4;overflow=hidden;points=[[0,0.5],[1,0.5]];portConstraint=eastwest;rotatable=0;whiteSpace=wrap;html=1;" parent="3h6TciAY_qZMlA3zQGol-22" vertex="1">
          <mxGeometry y="30" width="140" height="30" as="geometry" />
        </mxCell>
        <mxCell id="3h6TciAY_qZMlA3zQGol-24" value="Module ID {FK}&amp;nbsp;" style="text;strokeColor=none;fillColor=none;align=left;verticalAlign=middle;spacingLeft=4;spacingRight=4;overflow=hidden;points=[[0,0.5],[1,0.5]];portConstraint=eastwest;rotatable=0;whiteSpace=wrap;html=1;" parent="3h6TciAY_qZMlA3zQGol-22" vertex="1">
          <mxGeometry y="60" width="140" height="30" as="geometry" />
        </mxCell>
        <mxCell id="3h6TciAY_qZMlA3zQGol-25" value="Item 3" style="text;strokeColor=none;fillColor=none;align=left;verticalAlign=middle;spacingLeft=4;spacingRight=4;overflow=hidden;points=[[0,0.5],[1,0.5]];portConstraint=eastwest;rotatable=0;whiteSpace=wrap;html=1;" parent="3h6TciAY_qZMlA3zQGol-22" vertex="1">
          <mxGeometry y="90" width="140" height="30" as="geometry" />
        </mxCell>
        <mxCell id="3h6TciAY_qZMlA3zQGol-26" style="edgeStyle=orthogonalEdgeStyle;rounded=0;orthogonalLoop=1;jettySize=auto;html=1;exitX=0;exitY=0.5;exitDx=0;exitDy=0;entryX=0.223;entryY=1.153;entryDx=0;entryDy=0;entryPerimeter=0;endArrow=none;startFill=0;" parent="1" source="3h6TciAY_qZMlA3zQGol-24" target="3h6TciAY_qZMlA3zQGol-4" edge="1">
          <mxGeometry relative="1" as="geometry">
            <mxPoint x="230" y="410" as="targetPoint" />
            <Array as="points">
              <mxPoint x="82" y="515" />
            </Array>
          </mxGeometry>
        </mxCell>
        <mxCell id="3h6TciAY_qZMlA3zQGol-27" style="edgeStyle=orthogonalEdgeStyle;rounded=0;orthogonalLoop=1;jettySize=auto;html=1;exitX=1;exitY=0.5;exitDx=0;exitDy=0;entryX=0.863;entryY=0.967;entryDx=0;entryDy=0;entryPerimeter=0;endArrow=none;startFill=0;" parent="1" source="3h6TciAY_qZMlA3zQGol-24" target="3h6TciAY_qZMlA3zQGol-8" edge="1">
          <mxGeometry relative="1" as="geometry" />
        </mxCell>
        <mxCell id="3h6TciAY_qZMlA3zQGol-28" value="1...*" style="text;html=1;align=center;verticalAlign=middle;resizable=0;points=[];autosize=1;strokeColor=none;fillColor=none;" parent="1" vertex="1">
          <mxGeometry x="240" y="478" width="40" height="30" as="geometry" />
        </mxCell>
        <mxCell id="3h6TciAY_qZMlA3zQGol-29" value="1..*" style="text;html=1;align=center;verticalAlign=middle;resizable=0;points=[];autosize=1;strokeColor=none;fillColor=none;" parent="1" vertex="1">
          <mxGeometry x="440" y="488" width="40" height="30" as="geometry" />
        </mxCell>
        <mxCell id="3h6TciAY_qZMlA3zQGol-31" value="" style="endArrow=classic;html=1;rounded=0;" parent="1" edge="1">
          <mxGeometry width="50" height="50" relative="1" as="geometry">
            <mxPoint x="10" y="430" as="sourcePoint" />
            <mxPoint x="70" y="430" as="targetPoint" />
            <Array as="points">
              <mxPoint x="10" y="430" />
            </Array>
          </mxGeometry>
        </mxCell>
        <mxCell id="3h6TciAY_qZMlA3zQGol-32" value="" style="endArrow=classic;html=1;rounded=0;" parent="1" edge="1">
          <mxGeometry width="50" height="50" relative="1" as="geometry">
            <mxPoint x="740" y="430" as="sourcePoint" />
            <mxPoint x="680" y="430" as="targetPoint" />
            <Array as="points">
              <mxPoint x="690" y="430" />
            </Array>
          </mxGeometry>
        </mxCell>
        <mxCell id="3h6TciAY_qZMlA3zQGol-33" value="has" style="text;html=1;align=center;verticalAlign=middle;resizable=0;points=[];autosize=1;strokeColor=none;fillColor=none;" parent="1" vertex="1">
          <mxGeometry x="690" y="398" width="40" height="30" as="geometry" />
        </mxCell>
        <mxCell id="3h6TciAY_qZMlA3zQGol-34" value="has" style="text;html=1;align=center;verticalAlign=middle;resizable=0;points=[];autosize=1;strokeColor=none;fillColor=none;" parent="1" vertex="1">
          <mxGeometry x="20" y="398" width="40" height="30" as="geometry" />
        </mxCell>
      </root>
    </mxGraphModel>
  </diagram>
</mxfile>
